<?xml version="1.0" encoding="utf-8"?>
<!-- Generator: Adobe Illustrator 24.1.1, SVG Export Plug-In . SVG Version: 6.00 Build 0)  -->
<svg version="1.1" id="Capa_1" xmlns="http://www.w3.org/2000/svg" xmlns:xlink="http://www.w3.org/1999/xlink" x="0px" y="0px"
	 viewBox="0 0 74.8 87.7" style="enable-background:new 0 0 74.8 87.7;" xml:space="preserve">
<style type="text/css">
	.st0{fill:#D2EEF7;}
	.st1{fill:#040701;}
	.st2{fill:url(#Trazado_34_1_);}
	.st3{fill:url(#Trazado_35_1_);}
	.st4{fill:url(#Trazado_36_1_);}
	.st5{fill:#317995;}
	.st6{clip-path:url(#SVGID_2_);}
	.st7{fill:#245C6D;}
	.st8{fill:#E1AA2F;}
	.st9{fill:none;stroke:#0043D8;stroke-width:2.152;stroke-miterlimit:10;}
	.st10{fill:#C0C0C0;}
	.st11{fill:#001E82;}
	.st12{fill:#FFFFFF;}
</style>
<g id="Grupo_10" transform="translate(934.588 -225.957)">
	<circle id="Elipse_11" class="st0" cx="-897.1" cy="270.4" r="31.5"/>
	<path id="Rectángulo_14" class="st1" d="M-922.2,302.3h9.5l0,0v3.4c0,2.3-1.8,4.1-4.1,4.1l0,0h-1.2c-2.3,0-4.1-1.8-4.1-4.1l0,0
		v-3.4H-922.2z"/>
	<path id="Rectángulo_15" class="st1" d="M-881.9,302.3h9.5l0,0v3.4c0,2.3-1.8,4.1-4.1,4.1l0,0h-1.2c-2.3,0-4.1-1.8-4.1-4.1l0,0
		v-3.4H-881.9z"/>
	
		<linearGradient id="Trazado_34_1_" gradientUnits="userSpaceOnUse" x1="-2994.4558" y1="126.2037" x2="-2993.4558" y2="126.2037" gradientTransform="matrix(6.84 0 0 5.983 19550.7285 -479.0408)">
		<stop  offset="0.118" style="stop-color:#001E82"/>
		<stop  offset="1" style="stop-color:#002EAF"/>
	</linearGradient>
	<path id="Trazado_34" class="st2" d="M-924.5,278.5c-0.1-0.2-0.6-3-0.9-4.5c-0.1-0.5-0.6-0.9-1.1-0.9h-2.9c-1.1,0-1.9,0.9-1.9,1.9
		l0,0v0.1c0,0.6,0.5,1.1,1.1,1.1h3.5l0.8,2.8L-924.5,278.5z"/>
	
		<linearGradient id="Trazado_35_1_" gradientUnits="userSpaceOnUse" x1="-2994.4561" y1="126.2037" x2="-2993.4561" y2="126.2037" gradientTransform="matrix(6.84 0 0 5.983 19612.3516 -479.0408)">
		<stop  offset="0.118" style="stop-color:#001E82"/>
		<stop  offset="1" style="stop-color:#002EAF"/>
	</linearGradient>
	<path id="Trazado_35" class="st3" d="M-869.7,278.5c0.1-0.2,0.6-3,0.9-4.5c0.1-0.5,0.6-0.9,1.1-0.9h2.9c1.1,0,1.9,0.9,1.9,1.9l0,0
		v0.1c0,0.6-0.5,1.1-1.1,1.1h-3.5l-0.8,2.8L-869.7,278.5z"/>
	
		<linearGradient id="Trazado_36_1_" gradientUnits="userSpaceOnUse" x1="-3124.9937" y1="37.6469" x2="-3125.9656" y2="38.4719" gradientTransform="matrix(60.577 0 0 40.996 188440.2813 -1278.1432)">
		<stop  offset="0.118" style="stop-color:#001E82"/>
		<stop  offset="1" style="stop-color:#002EAF"/>
	</linearGradient>
	<path id="Trazado_36" class="st4" d="M-867.2,281.2L-867.2,281.2l-9.4-17.6c-0.5-0.9-1.4-1.5-2.4-1.5h-36.5c-1,0-2,0.6-2.5,1.5
		l-9.1,17.5l0,0c-0.2,0.4-0.3,0.8-0.3,1.2v17.6c0,1.7,1.4,3.2,3.2,3.2l0,0h54.3c1.7,0,3.2-1.4,3.2-3.2l0,0v-17.6
		C-866.8,282-867,281.6-867.2,281.2z"/>
	<g id="Grupo_11" transform="translate(-925.69 260.865)">
		<path id="Trazado_37" class="st5" d="M3.4,17.4l6-12.2c0.4-0.8,1.2-1.3,2.1-1.3H45c0.8,0,1.6,0.5,2,1.2l6.7,12.2
			c0.5,1,0.2,2.2-0.8,2.7c-0.3,0.2-0.6,0.2-1,0.2H5.2c-1.1,0-2-0.9-2-2C3.2,18,3.3,17.7,3.4,17.4z"/>
		<g>
			<g>
				<defs>
					<path id="SVGID_1_" d="M3.4,17.4l6-12.2c0.4-0.8,1.2-1.3,2.1-1.3H45c0.8,0,1.6,0.5,2,1.2l6.7,12.2c0.5,1,0.2,2.2-0.8,2.7
						c-0.3,0.2-0.6,0.2-1,0.2H5.2c-1.1,0-2-0.9-2-2C3.2,18,3.3,17.7,3.4,17.4z"/>
				</defs>
				<clipPath id="SVGID_2_">
					<use xlink:href="#SVGID_1_"  style="overflow:visible;"/>
				</clipPath>
				<g id="Grupo_10-2" transform="translate(0 0)" class="st6">
					<path id="Trazado_38" class="st7" d="M17.8-1.5l22.5,29.1h26.3l-18-32L17.8-1.5z"/>
				</g>
			</g>
		</g>
	</g>
	<path id="Trazado_40" class="st8" d="M-923.2,287.8v4c0,0.9,0.7,1.6,1.6,1.6h9.6c0.7,0,1.2-0.5,1.2-1.2c0-0.2,0-0.3-0.1-0.5
		l-0.4-0.9c-0.7-1.6-2.1-2.7-3.8-3.1l-6.2-1.4c-0.8-0.2-1.7,0.3-1.9,1.2C-923.2,287.6-923.2,287.7-923.2,287.8z"/>
	<path id="Trazado_41" class="st8" d="M-870.9,287.8v4c0,0.9-0.7,1.6-1.6,1.6h-9.6c-0.7,0-1.2-0.5-1.2-1.2c0-0.2,0-0.3,0.1-0.5
		l0.4-0.9c0.7-1.6,2.1-2.7,3.8-3.1l6.2-1.4c0.8-0.2,1.7,0.3,1.9,1.2C-870.9,287.6-870.9,287.7-870.9,287.8z"/>
	<path id="Trazado_42" class="st9" d="M-927.4,282.4c0,0,24.2,8.9,60.6,0"/>
	<line id="Línea_1" class="st9" x1="-927.4" y1="297.3" x2="-866.8" y2="297.3"/>
	<path id="Rectángulo_16" class="st0" d="M-919.6,298.8h3.9c0.4,0,0.8,0.3,0.8,0.8v1.2c0,0.4-0.3,0.8-0.8,0.8h-3.9
		c-0.4,0-0.8-0.3-0.8-0.8v-1.2C-920.3,299.1-920,298.8-919.6,298.8z"/>
	<path id="Rectángulo_17" class="st0" d="M-879,298.8h3.9c0.4,0,0.8,0.3,0.8,0.8v1.2c0,0.4-0.3,0.8-0.8,0.8h-3.9
		c-0.4,0-0.8-0.3-0.8-0.8v-1.2C-879.8,299.1-879.4,298.8-879,298.8z"/>
	<path id="Trazado_43" class="st10" d="M-888.5,294.2h-18.6c-0.5,0-0.8-0.4-0.8-0.9l0,0c0-0.5,0.4-0.9,0.8-0.9h18.6
		c0.5,0,0.8,0.4,0.8,0.9l0,0C-887.6,293.8-888,294.2-888.5,294.2z"/>
	<line id="Línea_2" class="st9" x1="-907.9" y1="290.4" x2="-887.6" y2="290.4"/>
	<g id="Grupo_12" transform="translate(-909.072 225.957)">
		<path id="Trazado_44" class="st11" d="M20.2,12.4c0-6.1-6.5-10.7-12.9-7.4C6.1,5.7,5.2,6.6,4.5,7.8c-1.6,2.5-1.7,5.7-0.3,8.4l0,0
			v0.1c0,0.1,0.1,0.1,0.1,0.2l7.4,13.4l7.4-13.4l0.1-0.1v-0.1l0,0C19.9,15.1,20.2,13.7,20.2,12.4z"/>
		<circle id="Elipse_12" class="st12" cx="11.7" cy="12.3" r="3.8"/>
	</g>
</g>
</svg>
