<?xml version="1.0" encoding="utf-8"?>
<!-- Generator: Adobe Illustrator 24.1.1, SVG Export Plug-In . SVG Version: 6.00 Build 0)  -->
<svg version="1.1" id="Capa_1" xmlns="http://www.w3.org/2000/svg" xmlns:xlink="http://www.w3.org/1999/xlink" x="0px" y="0px"
	 viewBox="0 0 68.7 85.6" style="enable-background:new 0 0 68.7 85.6;" xml:space="preserve">
<style type="text/css">
	.st0{fill:#D2EEF7;}
	.st1{fill:#E9D3CF;}
	.st2{fill:#E8A39A;}
	.st3{clip-path:url(#SVGID_2_);}
	.st4{clip-path:url(#SVGID_4_);}
	.st5{clip-path:url(#SVGID_6_);}
	.st6{fill:#1C1C1C;}
	.st7{fill:#95BCDF;}
	.st8{clip-path:url(#SVGID_8_);}
	.st9{fill:#D8EEFF;}
	.st10{fill:#FFFFFF;}
	.st11{fill:#001E82;}
	.st12{fill:none;stroke:#FFFFFF;stroke-width:0.518;stroke-miterlimit:10;}
</style>
<g id="Grupo_1" transform="translate(1073.889 -147.825)">
	
		<ellipse id="Elipse_9" transform="matrix(0.7071 -0.7071 0.7071 0.7071 -436.4966 -680.3372)" class="st0" cx="-1039.5" cy="186.7" rx="32.2" ry="32.2"/>
	<path id="Trazado_18" class="st1" d="M-1061.5,192.9c0,0-5.4,11.7,8.7,21.8c0,0,14.2,9.2,23.8-6.4L-1061.5,192.9z"/>
	<path id="Trazado_19" class="st1" d="M-1056.9,207.2l-12.1,26.3h24.9l5-17.8L-1056.9,207.2z"/>
	<path id="Trazado_20" class="st2" d="M-1045.5,212.8l13.1-3.2l-12.4-9.5L-1045.5,212.8z"/>
	<g id="Grupo_2" transform="translate(-1037.888 154.484)">
		<path id="Trazado_21" class="st1" d="M8.2,19.5l-6-3.5L10,2.5c1-1.7,3.1-2.2,4.7-1.3l0,0l0,0c1.7,1,2.2,3.1,1.3,4.7l0,0L8.2,19.5z
			"/>
		<g>
			<g>
				<defs>
					<path id="SVGID_1_" d="M8.2,19.5l-6-3.5L10,2.5c1-1.7,3.1-2.2,4.7-1.3l0,0l0,0c1.7,1,2.2,3.1,1.3,4.7l0,0L8.2,19.5z"/>
				</defs>
				<clipPath id="SVGID_2_">
					<use xlink:href="#SVGID_1_"  style="overflow:visible;"/>
				</clipPath>
				<g id="Grupo_1-2" transform="translate(0 0)" class="st3">
					<path id="Trazado_22" class="st2" d="M15.2,16.5L11.1,17l-4-16.4L12-0.6L15.2,16.5z"/>
				</g>
			</g>
		</g>
	</g>
	<g id="Grupo_4" transform="translate(-1034.577 162.733)">
		<path id="Trazado_24" class="st1" d="M8.2,19.5l-6-3.5L10,2.5c1-1.7,3.1-2.2,4.7-1.3l0,0l0,0c1.7,1,2.2,3.1,1.3,4.7l0,0L8.2,19.5z
			"/>
		<g>
			<g>
				<defs>
					<path id="SVGID_3_" d="M8.2,19.5l-6-3.5L10,2.5c1-1.7,3.1-2.2,4.7-1.3l0,0l0,0c1.7,1,2.2,3.1,1.3,4.7l0,0L8.2,19.5z"/>
				</defs>
				<clipPath id="SVGID_4_">
					<use xlink:href="#SVGID_3_"  style="overflow:visible;"/>
				</clipPath>
				<g id="Grupo_3" transform="translate(0 0)" class="st4">
					<path id="Trazado_25" class="st2" d="M10.5,0.4l3.2,15.4l-7-11.5L10.5,0.4z"/>
				</g>
			</g>
		</g>
	</g>
	<g id="Grupo_6" transform="translate(-1032.645 173.181)">
		<path id="Trazado_27" class="st1" d="M8.2,19.5l-6-3.5L10,2.5c1-1.7,3.1-2.2,4.7-1.3l0,0l0,0c1.7,1,2.2,3.1,1.3,4.7l0,0L8.2,19.5z
			"/>
		<g>
			<g>
				<defs>
					<path id="SVGID_5_" d="M8.2,19.5l-6-3.5L10,2.5c1-1.7,3.1-2.2,4.7-1.3l0,0l0,0c1.7,1,2.2,3.1,1.3,4.7l0,0L8.2,19.5z"/>
				</defs>
				<clipPath id="SVGID_6_">
					<use xlink:href="#SVGID_5_"  style="overflow:visible;"/>
				</clipPath>
				<g id="Grupo_5" transform="translate(0)" class="st5">
					<path id="Trazado_28" class="st2" d="M10.4-1.7L14.2,17L7.4,2.1L10.4-1.7z"/>
				</g>
			</g>
		</g>
	</g>
	<path id="Rect치ngulo_9" class="st6" d="M-1049.3,153.7l12.9-3.1c4.4-1.1,8.8,1.6,9.8,6l10.3,42.7c1.1,4.4-1.6,8.8-6,9.8l-12.9,3.1
		c-4.4,1.1-8.8-1.6-9.8-6l-10.3-42.7C-1056.4,159.1-1053.7,154.7-1049.3,153.7z"/>
	<g id="Grupo_8" transform="translate(-1057.7 149.707)">
		<path id="Rect치ngulo_10" class="st7" d="M8.4,5.6l13.7-3.3c3.4-0.8,6.8,1.3,7.7,4.7l9.1,37.9c0.8,3.4-1.3,6.8-4.7,7.7l-13.7,3.3
			c-3.4,0.8-6.8-1.3-7.7-4.7L3.7,13.3C2.9,9.9,5,6.4,8.4,5.6z"/>
		<g>
			<g>
				<defs>
					<path id="SVGID_7_" d="M8.4,5.6l13.7-3.3c3.4-0.8,6.8,1.3,7.7,4.7l9.1,37.9c0.8,3.4-1.3,6.8-4.7,7.7l-13.7,3.3
						c-3.4,0.8-6.8-1.3-7.7-4.7L3.7,13.3C2.9,9.9,5,6.4,8.4,5.6z"/>
				</defs>
				<clipPath id="SVGID_8_">
					<use xlink:href="#SVGID_7_"  style="overflow:visible;"/>
				</clipPath>
				<g id="Grupo_7" transform="translate(0 0)" class="st8">
					
						<rect id="Rect치ngulo_11" x="-4.2" y="27.6" transform="matrix(0.6348 -0.7727 0.7727 0.6348 -14.5715 26.5323)" class="st9" width="49.9" height="2.2"/>
					
						<rect id="Rect치ngulo_12" x="-12.6" y="19.7" transform="matrix(0.6348 -0.7727 0.7727 0.6348 -11.5434 17.1597)" class="st9" width="49.9" height="2.2"/>
					<path id="Trazado_30" class="st9" d="M41.3,70.1L25.2,56c-4-3.1-4.5-7.1-1.5-11.4l5.9-8.2c0.5-0.7,0.4-1.7-0.2-2.3L-2.1,5.5
						l1.5-1.6l31.5,28.6c1.5,1.3,1.7,3.6,0.6,5.2l-5.9,8.2c-2.4,3.4-2.1,6,1,8.4l0,0l16.1,14.1L41.3,70.1z"/>
				</g>
			</g>
		</g>
	</g>
	<circle id="Elipse_10" class="st10" cx="-1036.8" cy="177.2" r="2.8"/>
	<g id="Grupo_9" transform="translate(-1044.156 171.496)">
		<path id="Trazado_31" class="st11" d="M12.5,4.8C11.9,2,9,0.3,6.2,1l0,0C3.4,1.6,1.7,4.5,2.3,7.3c0.2,0.8,0.6,1.5,1.2,2.2l0,0l0,0
			l0.1,0.1l6.4,7l2.5-9.1V7.4l0,0l0,0C12.7,6.5,12.7,5.6,12.5,4.8z M7.8,7.7C6.7,8,5.6,7.3,5.3,6.2l0,0C5,5,5.7,3.9,6.9,3.6
			C8,3.3,9.2,4,9.4,5.1l0,0C9.7,6.3,9,7.4,7.8,7.7L7.8,7.7L7.8,7.7z"/>
	</g>
	<path id="Trazado_32" class="st12" d="M-1028.5,206.6c0.2,0.7-0.3,1.5-1,1.6l0,0c-0.7,0.2-1.5-0.3-1.6-1l0,0
		c-0.2-0.7,0.3-1.5,1-1.6l0,0C-1029.4,205.4-1028.7,205.9-1028.5,206.6L-1028.5,206.6z"/>
	<path id="Trazado_33" class="st1" d="M-1048.4,170.1c2.3,1.5,5.2,5.7-0.7,18.3c0,0,10.1,12.2,3.4,24.8l-11.9-17l-4-3.2l11.4-22.4
		C-1049.9,170-1049.1,169.7-1048.4,170.1C-1048.4,170.1-1048.4,170.1-1048.4,170.1z"/>
</g>
</svg>
